<?xml version="1.0" standalone="no"?>
<svg xmlns:xlink="http://www.w3.org/1999/xlink" id="wave" style="transform:rotate(180deg); transition: 0.3s" viewBox="0 0 1440 490" version="1.1" xmlns="http://www.w3.org/2000/svg"><defs><linearGradient id="sw-gradient-0" x1="0" x2="0" y1="1" y2="0"><stop stop-color="rgba(64, 123, 255, 1)" offset="0%"/><stop stop-color="rgba(38, 50, 56, 1)" offset="100%"/></linearGradient></defs><path style="transform:translate(0, 0px); opacity:1" fill="url(#sw-gradient-0)" d="M0,0L26.7,32.7C53.3,65,107,131,160,155.2C213.3,180,267,163,320,163.3C373.3,163,427,180,480,228.7C533.3,278,587,359,640,351.2C693.3,343,747,245,800,196C853.3,147,907,147,960,179.7C1013.3,212,1067,278,1120,277.7C1173.3,278,1227,212,1280,163.3C1333.3,114,1387,82,1440,73.5C1493.3,65,1547,82,1600,106.2C1653.3,131,1707,163,1760,204.2C1813.3,245,1867,294,1920,269.5C1973.3,245,2027,147,2080,122.5C2133.3,98,2187,147,2240,138.8C2293.3,131,2347,65,2400,89.8C2453.3,114,2507,229,2560,261.3C2613.3,294,2667,245,2720,261.3C2773.3,278,2827,359,2880,326.7C2933.3,294,2987,147,3040,98C3093.3,49,3147,98,3200,114.3C3253.3,131,3307,114,3360,98C3413.3,82,3467,65,3520,49C3573.3,33,3627,16,3680,73.5C3733.3,131,3787,261,3813,326.7L3840,392L3840,490L3813.3,490C3786.7,490,3733,490,3680,490C3626.7,490,3573,490,3520,490C3466.7,490,3413,490,3360,490C3306.7,490,3253,490,3200,490C3146.7,490,3093,490,3040,490C2986.7,490,2933,490,2880,490C2826.7,490,2773,490,2720,490C2666.7,490,2613,490,2560,490C2506.7,490,2453,490,2400,490C2346.7,490,2293,490,2240,490C2186.7,490,2133,490,2080,490C2026.7,490,1973,490,1920,490C1866.7,490,1813,490,1760,490C1706.7,490,1653,490,1600,490C1546.7,490,1493,490,1440,490C1386.7,490,1333,490,1280,490C1226.7,490,1173,490,1120,490C1066.7,490,1013,490,960,490C906.7,490,853,490,800,490C746.7,490,693,490,640,490C586.7,490,533,490,480,490C426.7,490,373,490,320,490C266.7,490,213,490,160,490C106.7,490,53,490,27,490L0,490Z"/></svg>